<svg width="36" height="36" viewBox="0 0 36 36" fill="none" xmlns="http://www.w3.org/2000/svg">
<g id="home">
<path id="Vector" d="M33.2752 17.7539L18.7943 3.28354C18.6901 3.17907 18.5662 3.09619 18.4299 3.03964C18.2936 2.98309 18.1474 2.95398 17.9998 2.95398C17.8522 2.95398 17.7061 2.98309 17.5697 3.03964C17.4334 3.09619 17.3095 3.17907 17.2053 3.28354L2.72441 17.7539C2.30254 18.1757 2.06348 18.7488 2.06348 19.3464C2.06348 20.5874 3.07246 21.5964 4.31348 21.5964H5.83926V31.9218C5.83926 32.5441 6.34199 33.0468 6.96426 33.0468H15.7498V25.1718H19.6873V33.0468H29.0354C29.6576 33.0468 30.1604 32.5441 30.1604 31.9218V21.5964H31.6861C32.2838 21.5964 32.8568 21.3609 33.2787 20.9355C34.1541 20.0566 34.1541 18.6328 33.2752 17.7539Z" fill="#B8B8B8"/>
</g>
</svg>
