<svg width="36" height="36" viewBox="0 0 36 36" fill="none" xmlns="http://www.w3.org/2000/svg">
<g id="message">
<path id="Vector" d="M32.4949 11.8969C31.7061 10.0144 30.5586 8.30332 29.1164 6.85905C27.6784 5.41226 25.9703 4.26197 24.089 3.4735C22.1618 2.66185 20.0911 2.2458 17.9999 2.25006H17.9296C15.8027 2.26061 13.746 2.68248 11.8089 3.51217C9.94379 4.30872 8.25172 5.46105 6.82729 6.90475C5.399 8.34578 4.26465 10.0509 3.48745 11.9251C2.68066 13.874 2.27186 15.9646 2.2851 18.0739C2.29565 20.5137 2.87924 22.936 3.96909 25.1016V30.4454C3.96909 31.3383 4.69331 32.0626 5.58276 32.0626H10.9195C13.0952 33.1604 15.4961 33.7381 17.9331 33.7501H18.007C20.1093 33.7501 22.1449 33.3423 24.0644 32.5442C25.9362 31.7651 27.6379 30.6283 29.0742 29.1973C30.5226 27.7594 31.6617 26.079 32.4597 24.2051C33.2859 22.2645 33.7078 20.2008 33.7183 18.0704C33.7253 15.9294 33.3105 13.8516 32.4949 11.8969ZM10.9828 19.6876C10.0546 19.6876 9.29877 18.9317 9.29877 18.0001C9.29877 17.0684 10.0546 16.3126 10.9828 16.3126C11.9109 16.3126 12.6667 17.0684 12.6667 18.0001C12.6667 18.9317 11.9144 19.6876 10.9828 19.6876ZM17.9999 19.6876C17.0718 19.6876 16.316 18.9317 16.316 18.0001C16.316 17.0684 17.0718 16.3126 17.9999 16.3126C18.9281 16.3126 19.6839 17.0684 19.6839 18.0001C19.6839 18.9317 18.9281 19.6876 17.9999 19.6876ZM25.0171 19.6876C24.089 19.6876 23.3331 18.9317 23.3331 18.0001C23.3331 17.0684 24.089 16.3126 25.0171 16.3126C25.9453 16.3126 26.7011 17.0684 26.7011 18.0001C26.7011 18.9317 25.9453 19.6876 25.0171 19.6876Z" fill="#B8B8B8"/>
</g>
</svg>
