<svg width="256" height="256" viewBox="0 0 256 256" fill="none" xmlns="http://www.w3.org/2000/svg">
<g clip-path="url(#clip0_154_7372)">
<path fill-rule="evenodd" clip-rule="evenodd" d="M17.593 63.2055C21.4275 57.3375 27.6395 56.552 34.117 57.2255C49.1845 58.806 64.29 60.065 79.2985 62.0725C91.8465 63.75 101.929 62.1135 109.989 50.419C119.177 37.094 130.374 25.149 140.692 12.6065C144.803 7.60649 149.294 4.02499 156.565 5.48799C156.748 5.52649 156.916 5.57349 157.095 5.61449C157.272 5.65849 157.443 5.69099 157.622 5.74099C164.779 7.69799 167.183 12.9125 168.613 19.225C172.201 35.066 176.844 50.7665 179.072 66.799C181.026 80.863 189.299 86.8545 201.264 90.989C215.575 95.933 229.642 101.589 243.812 106.945C249.906 109.246 255.104 112.736 255.895 119.702C256.728 127.021 252.514 131.52 246.372 135.087C230.348 144.392 214.607 154.18 198.634 163.576C192.548 167.155 189.49 171.766 189.22 179.141C188.555 197.08 187.354 215.005 185.883 232.901C185.338 239.525 184.744 246.988 177.107 249.91C169.788 252.709 164.229 248.748 158.953 244.028C145.757 232.233 132.373 220.647 119.127 208.908C116.193 206.303 113.265 204.673 110.066 203.978C106.897 203.163 103.548 203.307 99.758 204.314C82.6485 208.86 65.4915 213.201 48.4025 217.821C41.5695 219.666 34.8245 220.711 29.542 214.923C24.03 208.884 26.849 201.948 29.336 195.785C36.0545 179.135 43.029 162.575 50.492 146.251C53.5585 139.536 52.8965 134.048 49.0645 128.115C39.009 112.55 29.3385 96.7355 19.1975 81.227C15.3095 75.283 13.5615 69.3765 17.593 63.2055Z" fill="#F9D555"/>
<path d="M90.834 95.5825C94.3035 87.2015 100.44 78.517 110.634 80.2035C120.124 81.772 121.996 93.3935 122.225 101.165C122.378 106.371 114.318 106.774 114.165 101.577C114.032 97.2455 114.041 89.5975 108.882 88.0785C103.273 86.4305 99.562 95.5035 97.967 99.3615C95.9815 104.161 88.8565 100.353 90.834 95.5825ZM147.861 107.08C151.489 98.767 157.781 90.1915 167.937 92.063C177.404 93.805 179.061 105.462 179.149 113.242C179.208 118.442 171.138 118.698 171.077 113.495C171.027 109.166 171.176 101.521 166.045 99.9055C160.465 98.1545 156.589 107.165 154.927 110.988C152.855 115.753 145.804 111.815 147.861 107.08ZM121.887 121.962C126.163 124.39 129.542 127.866 134.562 128.445C138.729 128.925 143.441 127.686 147.552 127.127C151.351 126.62 155.212 127.091 157.084 130.835C159.688 136.058 158.711 143.866 155.93 148.83C153.158 153.765 148.391 157.768 143.179 159.916C140.465 161.034 137.151 162.038 134.206 162.19C133.574 162.224 133.026 162.246 132.408 162.199L106.991 143.857C106.578 142.892 106.209 141.909 105.885 140.911C102.091 130.002 109.083 114.705 121.887 121.962Z" fill="#0A6FB7"/>
<path d="M106.99 143.81C111.125 141.338 116.281 140.273 121.128 140.808C132.97 141.994 135.418 152.933 132.408 162.2C120.857 162.029 111.451 154.28 106.99 143.81Z" fill="#FD6085"/>
<path fill-rule="evenodd" clip-rule="evenodd" d="M94.8514 119.858C94.2099 125.411 87.9504 129.248 80.8729 128.433C73.7954 127.615 68.5749 122.45 69.2164 116.9C69.8579 111.347 76.1144 107.51 83.1919 108.328C90.2719 109.143 95.4924 114.308 94.8514 119.858ZM194.905 140.784C193.845 146.27 187.312 149.622 180.314 148.268C173.319 146.914 168.511 141.367 169.57 135.881C170.632 130.396 177.165 127.044 184.16 128.398C191.155 129.749 195.967 135.296 194.905 140.784Z" fill="#FD6085"/>
<path d="M65.1436 176.49C64.2021 175.58 62.3211 162.832 60.6086 162.938C58.8961 163.041 57.4011 175.68 56.6036 176.513C54.9936 178.185 43.2431 179.365 43.3371 180.986C43.4371 182.602 54.9761 183.364 56.6061 184.944C57.5156 185.824 59.4286 198.605 61.1411 198.505C62.8536 198.405 64.3196 185.801 65.1521 184.938C66.7031 183.326 78.5451 182.081 78.4476 180.453C78.3536 178.829 66.7121 178.014 65.1436 176.49ZM137.14 68.9115C136.705 68.488 135.828 62.567 135.036 62.614C134.239 62.664 133.544 68.535 133.173 68.9205C132.426 69.6975 126.964 70.248 127.011 71.001C127.055 71.7515 132.417 72.1045 133.173 72.8405C133.597 73.2495 134.486 79.185 135.283 79.141C136.078 79.094 136.758 73.2375 137.146 72.8345C137.864 72.087 143.367 71.51 143.323 70.754C143.279 70.0005 137.87 69.621 137.14 68.9115ZM138.629 186.84C138.194 186.416 137.32 180.495 136.525 180.542C135.728 180.592 135.033 186.463 134.662 186.852C133.915 187.629 128.456 188.179 128.497 188.929C128.544 189.68 133.906 190.033 134.665 190.769C135.089 191.178 135.975 197.116 136.772 197.069C137.567 197.022 138.247 191.166 138.635 190.766C139.356 190.015 144.859 189.436 144.812 188.679C144.768 187.926 139.359 187.549 138.629 186.84ZM38.2666 88.5375C35.4441 83.6345 32.1516 78.9025 30.0001 73.647C29.2261 71.752 27.5341 70.4305 25.3771 71.019C23.5791 71.5165 21.9721 73.744 22.7521 75.645C25.1681 81.5485 28.6056 86.822 31.7751 92.331C34.1906 96.5335 40.6886 92.743 38.2666 88.5375ZM41.7241 97.072C36.8771 97.072 36.8771 104.594 41.7241 104.594C46.5741 104.593 46.5741 97.072 41.7241 97.072ZM88.5096 164.209C83.6626 164.209 83.6626 171.725 88.5096 171.725C93.3591 171.726 93.3591 164.209 88.5096 164.209ZM157.313 47.0935C152.466 47.0935 152.466 54.6125 157.313 54.6125C162.163 54.6125 162.163 47.0935 157.313 47.0935ZM233.132 129.563C232.026 127.674 229.845 127.35 227.991 128.213C223.262 130.42 218.739 133.012 214.08 135.358C209.751 137.536 213.556 144.021 217.876 141.85C222.532 139.505 227.058 136.912 231.784 134.708C233.642 133.839 234.095 131.206 233.132 129.563ZM239.348 121.936C234.498 121.936 234.498 129.458 239.348 129.458C244.198 129.457 244.198 121.936 239.348 121.936ZM138.202 28.6245C136.466 27.294 134.324 27.815 132.932 29.316C129.386 33.1415 126.172 37.25 122.744 41.1785C119.557 44.8335 125.531 49.4005 128.709 45.7575C132.134 41.8285 135.348 37.7205 138.894 33.898C140.289 32.397 139.715 29.784 138.202 28.6245ZM141.081 19.216C136.593 21.0465 139.427 28.0095 143.918 26.179C148.408 24.3545 145.571 17.3885 141.081 19.216ZM179.129 195.25C179.511 190.418 172.016 189.797 171.639 194.629C171.107 201.383 171.248 208.169 170.715 214.923C170.336 219.752 177.828 220.373 178.208 215.541C178.74 208.788 178.599 202.001 179.129 195.25ZM174.046 222.878C169.197 222.878 169.197 230.397 174.046 230.397C178.893 230.397 178.893 222.878 174.046 222.878Z" fill="white"/>
<path d="M100.39 248.186C103.256 239.122 106.12 230.055 108.986 220.992C110.451 216.357 103.183 214.42 101.729 219.023C98.862 228.09 95.996 237.154 93.1295 246.217C91.667 250.855 98.933 252.789 100.39 248.186ZM203.425 76.319C210.523 69.995 217.618 63.6675 224.716 57.3465C228.348 54.1125 223.089 48.73 219.484 51.9435C212.386 58.2675 205.29 64.592 198.192 70.916C194.564 74.15 199.82 79.5295 203.425 76.319ZM4.02651 140.373C13.517 139.814 23.0075 139.251 32.4955 138.695C37.351 138.404 36.5625 130.927 31.742 131.212L3.27601 132.889C-1.57949 133.177 -0.79399 140.656 4.02651 140.373ZM75.2375 23.336C78.863 32.1235 82.4915 40.9105 86.12 49.698C87.974 54.1915 94.7865 51.0045 92.9445 46.543C89.319 37.7555 85.6905 28.9685 82.062 20.181C80.2075 15.6875 73.395 18.872 75.2375 23.336ZM204.814 182.178C211.632 188.803 218.451 195.424 225.269 202.048C228.759 205.433 233.745 199.806 230.281 196.443C223.462 189.815 216.644 183.194 209.825 176.57C206.335 173.186 201.35 178.812 204.814 182.178Z" fill="#0A6FB7"/>
</g>
<defs>
<clipPath id="clip0_154_7372">
<rect width="256" height="256" fill="white"/>
</clipPath>
</defs>
</svg>
