<svg width="100" height="100" viewBox="0 0 100 100" fill="none" xmlns="http://www.w3.org/2000/svg">
<g id="user-icon-gradient 1" clip-path="url(#clip0_168_15451)">
<g id="Group">
<path id="Vector" d="M100 50C100 77.6146 77.6146 100 50 100C22.3854 100 0 77.6146 0 50C0 22.3854 22.3854 0 50 0C77.6146 0 100 22.3854 100 50Z" fill="url(#paint0_linear_168_15451)"/>
<path id="Vector_2" d="M61.3678 48.4254C65.9607 44.9662 68.9361 39.4699 68.9361 33.2908C68.9361 22.85 60.4416 14.3555 50 14.3555C39.5592 14.3555 31.0644 22.85 31.0644 33.291C31.0644 39.4699 34.0392 44.9662 38.6322 48.4254C26.3351 53.041 17.559 64.9184 17.559 78.8086H23.4183C23.4183 64.151 35.3431 52.227 50.0008 52.227C64.6576 52.227 76.5824 64.151 76.5824 78.8086H82.4418C82.441 64.9186 73.6656 53.041 61.3678 48.4252V48.4254ZM36.924 33.2908C36.924 26.0803 42.7894 20.2148 50 20.2148C57.2105 20.2148 63.0762 26.0803 63.0762 33.291C63.0762 40.5018 57.2105 46.3676 50 46.3676C42.7894 46.3676 36.924 40.5014 36.924 33.2908Z" fill="white"/>
</g>
</g>
<defs>
<linearGradient id="paint0_linear_168_15451" x1="0" y1="50" x2="100" y2="50" gradientUnits="userSpaceOnUse">
<stop stop-color="#7AC8FF"/>
<stop offset="1" stop-color="#0A6FB7"/>
</linearGradient>
<clipPath id="clip0_168_15451">
<rect width="100" height="100" fill="white"/>
</clipPath>
</defs>
</svg>
