<?xml version="1.0" encoding="UTF-8"?>
<svg id="_Слой_2" data-name="Слой 2" xmlns="http://www.w3.org/2000/svg" xmlns:xlink="http://www.w3.org/1999/xlink" viewBox="0 0 287.62 50.8">
  <defs>
    <style>
      .cls-1 {
        fill: url(#linear-gradient-12);
      }

      .cls-1, .cls-2, .cls-3, .cls-4, .cls-5, .cls-6, .cls-7, .cls-8, .cls-9, .cls-10, .cls-11, .cls-12, .cls-13, .cls-14, .cls-15, .cls-16, .cls-17 {
        stroke-width: 0px;
      }

      .cls-2 {
        fill: url(#linear-gradient);
      }

      .cls-3 {
        fill: #2c2495;
      }

      .cls-4 {
        fill: url(#linear-gradient-6);
      }

      .cls-5 {
        fill: #f88f00;
      }

      .cls-6 {
        fill: url(#linear-gradient-15);
      }

      .cls-7 {
        fill: url(#linear-gradient-11);
      }

      .cls-8 {
        fill: url(#linear-gradient-5);
      }

      .cls-9 {
        fill: url(#linear-gradient-13);
      }

      .cls-10 {
        fill: url(#linear-gradient-14);
      }

      .cls-11 {
        fill: url(#linear-gradient-2);
      }

      .cls-12 {
        fill: url(#linear-gradient-7);
      }

      .cls-13 {
        fill: url(#linear-gradient-3);
      }

      .cls-14 {
        fill: url(#linear-gradient-9);
      }

      .cls-15 {
        fill: url(#linear-gradient-8);
      }

      .cls-16 {
        fill: url(#linear-gradient-10);
      }

      .cls-17 {
        fill: url(#linear-gradient-4);
      }
    </style>
    <linearGradient id="linear-gradient" x1="160.47" y1=".97" x2="160.47" y2="46.57" gradientUnits="userSpaceOnUse">
      <stop offset="0" stop-color="#eebb2e"/>
      <stop offset=".31" stop-color="#e8aa22"/>
      <stop offset=".92" stop-color="#da7e04"/>
      <stop offset="1" stop-color="#d97800"/>
    </linearGradient>
    <linearGradient id="linear-gradient-2" x1="160.47" y1="-8.49" x2="160.47" y2="33.19" gradientUnits="userSpaceOnUse">
      <stop offset=".32" stop-color="#eebb2e"/>
      <stop offset=".61" stop-color="#e19211"/>
      <stop offset=".78" stop-color="#d97800"/>
    </linearGradient>
    <linearGradient id="linear-gradient-3" x1="160.47" y1=".56" x2="160.47" y2="57.36" gradientUnits="userSpaceOnUse">
      <stop offset=".24" stop-color="#eebb2e"/>
      <stop offset=".5" stop-color="#e08f10"/>
      <stop offset=".64" stop-color="#d97800"/>
    </linearGradient>
    <linearGradient id="linear-gradient-4" x1="147.25" y1="43.18" x2="147.25" y2="39.24" gradientUnits="userSpaceOnUse">
      <stop offset="0" stop-color="#3b2fb3"/>
      <stop offset=".08" stop-color="#322a9c"/>
      <stop offset=".16" stop-color="#2a2688"/>
      <stop offset=".26" stop-color="#25237a"/>
      <stop offset=".38" stop-color="#212172"/>
      <stop offset=".6" stop-color="#212170"/>
    </linearGradient>
    <linearGradient id="linear-gradient-5" x1="306.18" y1="43.18" x2="306.18" y2="39.24" gradientTransform="translate(479.87) rotate(-180) scale(1 -1)" xlink:href="#linear-gradient-4"/>
    <linearGradient id="linear-gradient-6" x1="160.47" y1="13.29" x2="160.47" y2="27.09" gradientUnits="userSpaceOnUse">
      <stop offset=".06" stop-color="#4235c9"/>
      <stop offset=".23" stop-color="#3e33c0"/>
      <stop offset=".49" stop-color="#362da9"/>
      <stop offset=".82" stop-color="#282584"/>
      <stop offset=".98" stop-color="#212170"/>
    </linearGradient>
    <linearGradient id="linear-gradient-7" x1="148.67" y1="22.17" x2="172.27" y2="22.17" gradientUnits="userSpaceOnUse">
      <stop offset=".24" stop-color="#cac7f2"/>
      <stop offset=".33" stop-color="#d5d3f4"/>
      <stop offset=".55" stop-color="#ecebfa"/>
      <stop offset=".76" stop-color="#faf9fd"/>
      <stop offset=".93" stop-color="#fff"/>
    </linearGradient>
    <linearGradient id="linear-gradient-8" x1="160.47" y1="42.43" x2="160.47" y2="18.92" gradientUnits="userSpaceOnUse">
      <stop offset=".06" stop-color="#4235c9"/>
      <stop offset=".23" stop-color="#3f33c2"/>
      <stop offset=".45" stop-color="#392fb0"/>
      <stop offset=".72" stop-color="#2e2993"/>
      <stop offset=".98" stop-color="#212170"/>
    </linearGradient>
    <linearGradient id="linear-gradient-9" x1="152.01" y1="27.33" x2="145.72" y2="33.62" xlink:href="#linear-gradient-7"/>
    <linearGradient id="linear-gradient-10" x1="169.13" y1="34.42" x2="176.25" y2="27.3" xlink:href="#linear-gradient-7"/>
    <linearGradient id="linear-gradient-11" x1="160.47" y1="23.76" x2="160.47" y2="38.32" gradientUnits="userSpaceOnUse">
      <stop offset=".08" stop-color="#4235c9"/>
      <stop offset=".24" stop-color="#3f33c1"/>
      <stop offset=".49" stop-color="#372ead"/>
      <stop offset=".79" stop-color="#2b278c"/>
      <stop offset="1" stop-color="#212170"/>
    </linearGradient>
    <linearGradient id="linear-gradient-12" x1="160.47" y1="37.35" x2="160.47" y2="28.45" gradientUnits="userSpaceOnUse">
      <stop offset="0" stop-color="#3b2fb3"/>
      <stop offset=".06" stop-color="#322a9c"/>
      <stop offset=".12" stop-color="#2a2688"/>
      <stop offset=".19" stop-color="#25237a"/>
      <stop offset=".28" stop-color="#212172"/>
      <stop offset=".44" stop-color="#212170"/>
    </linearGradient>
    <linearGradient id="linear-gradient-13" x1="160.47" y1="39.09" x2="160.47" y2="35.76" xlink:href="#linear-gradient-4"/>
    <linearGradient id="linear-gradient-14" x1="229.04" y1="36.33" x2="224.02" y2="36.33" gradientTransform="translate(398.9) rotate(-180) scale(1 -1)" xlink:href="#linear-gradient-4"/>
    <linearGradient id="linear-gradient-15" x1="151.08" y1="36.33" x2="146.06" y2="36.33" xlink:href="#linear-gradient-4"/>
  </defs>
  <g id="TEXTS">
    <g>
      <g>
        <path class="cls-2" d="m205.33,50.8s-16.84-10.88-44.86-10.88-44.86,10.88-44.86,10.88c0,0,16.84-6.92,44.86-6.92s44.86,6.92,44.86,6.92Z"/>
        <g>
          <path class="cls-11" d="m179.78,19.98c-.32-.98-.72-1.93-1.18-2.85l3.64-6.25-3.17-3.17-3.17-3.17-6.25,3.64c-.91-.46-1.86-.86-2.85-1.18l-1.84-7h-8.98l-1.84,7c-.98.32-1.93.72-2.85,1.18l-6.25-3.64-3.17,3.17-3.17,3.17,3.64,6.25c-.46.91-.86,1.86-1.18,2.85l-7,1.84v8.98l7,1.84c.32.98.72,1.93,1.18,2.85l-2.44,4.18c4.15-.99,8.84-1.76,14.05-2.12-3.87-2.25-6.48-6.44-6.48-11.24,0-7.18,5.82-13,13-13s13,5.82,13,13c0,4.8-2.61,8.99-6.48,11.24,5.21.36,9.89,1.12,14.05,2.12l-2.44-4.18c.46-.91.86-1.86,1.18-2.85l7-1.84v-8.98l-7-1.84Z"/>
          <path class="cls-13" d="m160.47,10.52c-6.95,0-13.53,1.61-19.38,4.47l1.25,2.14c-.46.91-.86,1.86-1.18,2.85l-7,1.84v8.98l7,1.84c.32.98.72,1.93,1.18,2.85l-2.44,4.18c4.15-.99,8.84-1.76,14.05-2.12-3.87-2.25-6.48-6.44-6.48-11.24,0-7.18,5.82-13,13-13s13,5.82,13,13c0,4.8-2.61,8.99-6.48,11.24,5.21.36,9.89,1.12,14.05,2.12l-2.44-4.18c.46-.91.86-1.86,1.18-2.85l7-1.84v-8.98l-7-1.84c-.32-.98-.72-1.93-1.18-2.85l1.25-2.14c-5.85-2.86-12.43-4.47-19.38-4.47Z"/>
        </g>
        <g>
          <g>
            <path class="cls-17" d="m144.49,38.15l.15,3.8c.01.32.28.57.6.57h3.85c.31,0,.56-.23.59-.54l.33-3.44c.03-.33-.21-.62-.54-.65l-4.33-.36c-.36-.03-.66.26-.65.62Z"/>
            <path class="cls-8" d="m176.45,38.15l-.15,3.8c-.01.32-.28.57-.6.57h-3.85c-.31,0-.56-.23-.59-.54l-.33-3.44c-.03-.33.21-.62.55-.65l4.33-.36c.36-.03.66.26.65.62Z"/>
          </g>
          <path class="cls-4" d="m175.83,24.04c-1.12-.48-2.39.23-2.89.56-.86-1.77-2.05-4.09-2.9-5.14-1.47-1.83-2.46-1.87-3.53-2.06-1.07-.2-6.04-.19-6.04-.19,0,0-4.97,0-6.04.19s-2.06.24-3.53,2.06c-.85,1.06-2.04,3.38-2.9,5.14-.5-.33-1.77-1.04-2.89-.56-1.43.62-1.11,2.42,1.73,2.68l.23-.14c-.09.19-.13.3-.13.3l13.54-1.27,13.54,1.27s-.05-.11-.13-.3l.23.14c2.84-.26,3.16-2.06,1.73-2.68Z"/>
          <path class="cls-12" d="m168.02,18.74s-.4-.26-1.07-.34c-.67-.08-6.48-.2-6.48-.2,0,0-5.8.12-6.48.2s-1.07.34-1.07.34c-2.46,2.02-4.25,7.38-4.25,7.38h23.6s-1.79-5.36-4.25-7.38Z"/>
          <path class="cls-15" d="m176.71,29.14c-.63-2.1-2.78-2.9-4.17-3.45-1.39-.56-5.21-1.03-12.07-1.03s-10.68.48-12.07,1.03c-1.39.56-3.53,1.35-4.17,3.45-.63,2.1-1.07,7.7-1.07,7.7.04.99.95,1.27.95,1.27,4.68,1.23,13.1,1.19,13.1,1.19h6.52s8.41.04,13.1-1.19c0,0,.91-.28.95-1.27,0,0-.44-5.6-1.07-7.7Z"/>
          <path class="cls-14" d="m145.76,31.71c1.49.7,4.05,1.04,6.02.95.28-.01.46-.29.37-.55-.1-.28-.23-.63-.37-.93-.15-.33-.38-.61-.67-.82-1.28-.91-3.31-1.68-5.39-1.7-.38,0-.7.3-.71.69-.01.53.06,1.3.47,2.09.06.12.16.22.28.27Z"/>
          <path class="cls-16" d="m175.18,31.71c-1.49.7-4.05,1.04-6.02.95-.28-.01-.46-.29-.37-.55.1-.28.23-.63.37-.93.15-.33.38-.61.67-.82,1.28-.91,3.31-1.68,5.39-1.7.38,0,.7.3.71.69.01.53-.06,1.3-.47,2.09-.06.12-.16.22-.28.27Z"/>
          <path class="cls-7" d="m160.47,24.66c-5.67,0-9.26.33-11.12.75.23.56.9,1.74,2.65,2.08,2.33.45,8.47.3,8.47.3,0,0,6.14.15,8.47-.3,1.75-.34,2.43-1.52,2.65-2.08-1.86-.43-5.45-.75-11.12-.75Z"/>
          <path class="cls-1" d="m167.84,29.79c-.08-.54-.74-.82-1.07-.82h-12.59c-.33,0-1,.28-1.07.82-.08.54.93,3.81.93,3.81.37.41,1.06.38,1.06.38h10.74s.69.03,1.06-.38c0,0,1.01-3.27.93-3.81Z"/>
          <path class="cls-9" d="m168.81,35.48c-.5-.23-16.18-.23-16.68,0s-1.19,1.53-.13,2.19c.92.57,16.03.57,16.95,0,1.06-.66.37-1.96-.13-2.19Z"/>
          <path class="cls-10" d="m172.54,35.31s3.23-.2,3.38-.12c.15.08.31,1.63.15,1.9-.16.28-3.33.4-3.53.38,0,0,.5-.77.44-1.33-.06-.56-.44-.83-.44-.83Z"/>
          <path class="cls-6" d="m148.4,35.31s-3.23-.2-3.38-.12c-.15.08-.31,1.63-.15,1.9.16.28,3.33.4,3.53.38,0,0-.5-.77-.44-1.33.06-.56.44-.83.44-.83Z"/>
        </g>
      </g>
      <g>
        <g>
          <path class="cls-3" d="m9.51,13.57v10h-2.33l-4.41-5.33v5.33H0v-10h2.33l4.41,5.33v-5.33h2.77Z"/>
          <path class="cls-3" d="m12.59,22.55c-.82-.81-1.24-1.96-1.24-3.44v-5.54h2.83v5.46c0,1.6.63,2.4,1.9,2.4s1.89-.8,1.89-2.4v-5.46h2.79v5.54c0,1.49-.41,2.63-1.24,3.44-.82.81-1.98,1.21-3.46,1.21s-2.64-.4-3.46-1.21Z"/>
          <path class="cls-3" d="m26.97,20.91h-1.54v2.66h-2.83v-10h4.57c.9,0,1.69.15,2.36.45.67.3,1.18.73,1.54,1.29.36.56.54,1.21.54,1.96s-.17,1.35-.51,1.89c-.34.54-.82.96-1.45,1.26l2.16,3.14h-3.03l-1.81-2.66Zm1.34-4.73c-.3-.26-.73-.39-1.31-.39h-1.57v2.93h1.57c.58,0,1.02-.13,1.31-.38.29-.25.44-.61.44-1.08s-.15-.83-.44-1.09Z"/>
          <path class="cls-3" d="m37.19,13.57h2.83v10h-2.83v-10Z"/>
          <path class="cls-3" d="m51.47,13.57v10h-2.33l-4.41-5.33v5.33h-2.77v-10h2.33l4.41,5.33v-5.33h2.77Z"/>
          <path class="cls-3" d="m53.4,13.57h4.73c1.1,0,2.07.21,2.91.61.85.41,1.5.99,1.97,1.74s.7,1.63.7,2.64-.23,1.89-.7,2.64c-.47.75-1.12,1.33-1.97,1.74-.85.41-1.82.61-2.91.61h-4.73v-10Zm4.61,7.74c.86,0,1.54-.24,2.06-.73.52-.49.78-1.16.78-2.01s-.26-1.53-.78-2.01c-.52-.49-1.21-.73-2.06-.73h-1.79v5.49h1.79Z"/>
          <path class="cls-3" d="m66.28,22.55c-.82-.81-1.24-1.96-1.24-3.44v-5.54h2.83v5.46c0,1.6.63,2.4,1.9,2.4s1.89-.8,1.89-2.4v-5.46h2.79v5.54c0,1.49-.41,2.63-1.24,3.44-.82.81-1.98,1.21-3.46,1.21s-2.64-.4-3.46-1.21Z"/>
          <path class="cls-3" d="m77.45,23.47c-.76-.2-1.38-.47-1.86-.8l.93-2.09c.45.3.97.53,1.56.71.59.18,1.17.27,1.74.27,1.09,0,1.63-.27,1.63-.81,0-.29-.15-.5-.46-.64-.31-.14-.81-.28-1.49-.44-.75-.16-1.38-.34-1.89-.52-.5-.19-.94-.48-1.3-.89-.36-.41-.54-.96-.54-1.66,0-.61.17-1.16.5-1.65.33-.49.83-.88,1.49-1.16s1.47-.43,2.44-.43c.66,0,1.3.07,1.94.22.64.15,1.2.36,1.69.65l-.87,2.1c-.95-.51-1.88-.77-2.77-.77-.56,0-.97.08-1.23.25-.26.17-.39.38-.39.65s.15.47.46.6c.3.13.79.27,1.47.41.76.16,1.39.34,1.89.52.5.19.93.48,1.3.89s.55.96.55,1.65c0,.6-.17,1.14-.5,1.63-.33.49-.83.87-1.5,1.16-.67.29-1.48.44-2.43.44-.81,0-1.6-.1-2.36-.3Z"/>
          <path class="cls-3" d="m87.45,15.81h-3.07v-2.24h8.96v2.24h-3.06v7.76h-2.83v-7.76Z"/>
          <path class="cls-3" d="m98.69,20.91h-1.54v2.66h-2.83v-10h4.57c.9,0,1.69.15,2.36.45.67.3,1.18.73,1.54,1.29.36.56.54,1.21.54,1.96s-.17,1.35-.51,1.89c-.34.54-.82.96-1.45,1.26l2.16,3.14h-3.03l-1.81-2.66Zm1.34-4.73c-.3-.26-.73-.39-1.31-.39h-1.57v2.93h1.57c.58,0,1.02-.13,1.31-.38.29-.25.44-.61.44-1.08s-.15-.83-.44-1.09Z"/>
          <path class="cls-3" d="m110.03,19.98v3.59h-2.83v-3.63l-3.81-6.37h2.99l2.37,3.97,2.37-3.97h2.74l-3.83,6.41Z"/>
        </g>
        <g>
          <path class="cls-5" d="m1.29,35.48c-.42-.13-.75-.3-1-.51l.38-.85c.24.19.53.34.88.46s.7.18,1.05.18c.44,0,.76-.07.97-.21.21-.14.32-.32.32-.55,0-.17-.06-.3-.18-.41-.12-.11-.27-.19-.46-.25s-.44-.13-.75-.21c-.45-.11-.81-.21-1.08-.32-.28-.11-.51-.27-.71-.5-.2-.23-.3-.53-.3-.92,0-.32.09-.62.26-.88.18-.27.44-.48.79-.63.35-.16.79-.23,1.3-.23.36,0,.71.04,1.05.13.35.09.64.22.9.39l-.34.85c-.26-.15-.52-.26-.8-.34-.28-.08-.55-.12-.81-.12-.43,0-.75.07-.96.22-.21.15-.31.34-.31.58,0,.17.06.3.18.41.12.11.27.19.46.25.18.06.44.13.75.21.44.1.79.21,1.07.31s.52.27.72.5c.2.22.3.52.3.9,0,.32-.09.62-.26.88-.18.26-.44.47-.8.63s-.79.23-1.31.23c-.45,0-.89-.06-1.31-.19Z"/>
          <path class="cls-5" d="m6,30.21c-.13-.12-.19-.27-.19-.45s.06-.33.19-.45.29-.18.48-.18.35.06.48.17.19.26.19.43c0,.18-.06.34-.19.46-.13.13-.29.19-.48.19s-.35-.06-.48-.18Zm-.05.92h1.05v4.47h-1.05v-4.47Z"/>
          <path class="cls-5" d="m15.35,31.56c.33.33.49.82.49,1.47v2.56h-1.05v-2.43c0-.39-.09-.68-.26-.88s-.42-.3-.74-.3c-.35,0-.63.12-.85.35-.21.23-.32.56-.32.99v2.27h-1.05v-2.43c0-.39-.09-.68-.26-.88s-.42-.3-.74-.3c-.36,0-.64.11-.85.34-.21.23-.31.56-.31,1v2.27h-1.05v-4.47h1v.57c.17-.2.38-.35.63-.46.25-.11.53-.16.84-.16.33,0,.63.06.89.19.26.12.46.31.62.56.18-.23.42-.42.71-.55s.61-.2.96-.2c.56,0,1.01.16,1.34.49Z"/>
          <path class="cls-5" d="m20.82,31.36c.34.19.61.46.81.8s.29.74.29,1.2-.1.85-.29,1.2-.46.62-.81.81c-.34.19-.73.28-1.17.28-.6,0-1.08-.2-1.43-.6v2.17h-1.05v-6.09h1v.59c.17-.21.39-.37.64-.48.25-.11.53-.16.84-.16.44,0,.82.09,1.17.28Zm-.33,3.01c.25-.26.37-.59.37-1.01s-.12-.76-.37-1.01c-.25-.26-.56-.38-.95-.38-.25,0-.48.06-.68.17s-.36.28-.48.49-.18.46-.18.74.06.52.18.74.28.38.48.49c.2.12.43.17.68.17.39,0,.7-.13.95-.38Z"/>
          <path class="cls-5" d="m22.92,29.38h1.05v6.21h-1.05v-6.21Z"/>
          <path class="cls-5" d="m25.39,30.21c-.13-.12-.19-.27-.19-.45s.06-.33.19-.45.29-.18.48-.18.35.06.48.17.19.26.19.43c0,.18-.06.34-.19.46-.13.13-.29.19-.48.19s-.35-.06-.48-.18Zm-.05.92h1.05v4.47h-1.05v-4.47Z"/>
          <path class="cls-5" d="m28.91,30.89v.27h1.23v.84h-1.2v3.6h-1.05v-3.6h-.74v-.84h.74v-.28c0-.48.14-.86.42-1.13.28-.28.67-.41,1.18-.41.4,0,.72.08.95.24l-.29.79c-.18-.12-.37-.18-.58-.18-.44,0-.66.24-.66.72Z"/>
          <path class="cls-5" d="m35.11,31.12l-2.09,4.83c-.2.49-.43.83-.71,1.03s-.62.3-1.01.3c-.22,0-.44-.04-.66-.11-.22-.07-.4-.17-.54-.3l.42-.77c.1.09.22.17.36.23.14.06.27.08.41.08.18,0,.34-.05.46-.14.12-.1.23-.25.33-.48l.08-.18-1.95-4.49h1.09l1.41,3.31,1.41-3.31h1Z"/>
          <path class="cls-5" d="m36.32,34.45c.13.13.19.29.19.5,0,.09-.01.18-.04.28s-.08.24-.15.44l-.43,1.18h-.68l.33-1.28c-.12-.05-.22-.13-.29-.24-.07-.11-.1-.24-.1-.38,0-.21.06-.37.19-.5.13-.13.29-.19.49-.19s.36.06.49.19Z"/>
          <path class="cls-5" d="m41.05,35.29c-.48-.26-.85-.62-1.12-1.08-.27-.46-.41-.97-.41-1.55s.14-1.09.41-1.55c.27-.46.65-.82,1.13-1.08s1.01-.39,1.6-.39c.48,0,.92.08,1.31.25.4.17.73.41,1,.73l-.7.66c-.42-.46-.95-.69-1.56-.69-.4,0-.76.09-1.08.26s-.57.42-.74.73c-.18.31-.27.67-.27,1.06s.09.75.27,1.06c.18.31.43.56.74.73s.68.26,1.08.26c.62,0,1.14-.23,1.56-.69l.7.67c-.27.32-.61.56-1.01.73-.4.17-.84.25-1.32.25-.59,0-1.13-.13-1.6-.39Z"/>
          <path class="cls-5" d="m46.54,35.36c-.36-.2-.65-.47-.85-.82s-.31-.74-.31-1.18.1-.83.31-1.18.49-.62.85-.81.77-.29,1.22-.29.87.1,1.23.29c.36.2.65.47.85.81s.31.74.31,1.18-.1.84-.31,1.18-.49.62-.85.82c-.36.2-.77.29-1.23.29s-.86-.1-1.22-.29Zm2.18-.99c.25-.26.38-.59.38-1.01s-.13-.76-.38-1.01c-.25-.26-.57-.38-.95-.38s-.7.13-.95.38c-.25.26-.37.59-.37,1.01s.12.76.37,1.01c.25.26.56.38.95.38s.7-.13.95-.38Z"/>
          <path class="cls-5" d="m55.04,31.57c.34.33.51.82.51,1.46v2.56h-1.05v-2.43c0-.39-.09-.68-.28-.88s-.45-.3-.79-.3c-.38,0-.69.12-.91.35-.22.23-.33.57-.33,1v2.26h-1.05v-4.47h1v.58c.17-.21.39-.36.65-.47.26-.11.56-.16.89-.16.56,0,1.02.16,1.36.49Z"/>
          <path class="cls-5" d="m60.78,31.57c.34.33.51.82.51,1.46v2.56h-1.05v-2.43c0-.39-.09-.68-.28-.88s-.45-.3-.79-.3c-.38,0-.69.12-.91.35-.22.23-.33.57-.33,1v2.26h-1.05v-4.47h1v.58c.17-.21.39-.36.65-.47.26-.11.56-.16.89-.16.56,0,1.02.16,1.36.49Z"/>
          <path class="cls-5" d="m66.84,33.69h-3.51c.06.33.22.59.48.78s.58.29.97.29c.49,0,.9-.16,1.21-.49l.56.64c-.2.24-.46.42-.76.54-.31.12-.65.18-1.04.18-.49,0-.92-.1-1.3-.29-.37-.2-.66-.47-.87-.82s-.31-.74-.31-1.18.1-.83.3-1.18c.2-.35.47-.62.82-.82s.75-.29,1.19-.29.82.1,1.17.29.61.46.8.81.29.75.29,1.21c0,.07,0,.18-.02.31Zm-3.09-1.49c-.23.2-.37.46-.42.79h2.54c-.04-.32-.18-.59-.41-.79-.23-.2-.51-.3-.85-.3s-.62.1-.85.3Z"/>
          <path class="cls-5" d="m68.67,35.36c-.37-.2-.66-.47-.86-.82-.21-.35-.31-.74-.31-1.18s.1-.83.31-1.18c.21-.35.49-.62.86-.81s.78-.29,1.25-.29c.44,0,.83.09,1.16.27.33.18.58.44.75.77l-.8.47c-.13-.21-.29-.36-.48-.46-.19-.1-.4-.16-.63-.16-.39,0-.71.13-.97.38-.26.25-.38.59-.38,1.02s.13.76.38,1.02.58.38.98.38c.23,0,.44-.05.63-.15.19-.1.35-.26.48-.46l.8.47c-.17.33-.43.59-.76.77-.33.18-.72.27-1.15.27-.46,0-.88-.1-1.25-.29Z"/>
          <path class="cls-5" d="m75.47,35.35c-.12.1-.27.18-.45.23-.18.05-.36.08-.56.08-.49,0-.87-.13-1.14-.38-.27-.26-.4-.63-.4-1.12v-2.15h-.74v-.84h.74v-1.02h1.05v1.02h1.2v.84h-1.2v2.13c0,.22.05.38.16.5.11.11.26.17.46.17.23,0,.43-.06.59-.18l.29.74Z"/>
          <path class="cls-5" d="m77.24,34.45c.13.13.19.29.19.5,0,.09-.01.18-.04.28s-.08.24-.15.44l-.43,1.18h-.68l.33-1.28c-.12-.05-.22-.13-.29-.24-.07-.11-.1-.24-.1-.38,0-.21.06-.37.19-.5.13-.13.29-.19.49-.19s.36.06.49.19Z"/>
          <path class="cls-5" d="m84.6,29.98c.38.17.67.41.87.72s.3.68.3,1.11-.1.79-.3,1.11-.49.56-.87.72-.82.25-1.33.25h-1.32v1.69h-1.09v-5.86h2.41c.51,0,.95.08,1.33.25Zm-.3,2.69c.25-.2.37-.49.37-.86s-.12-.66-.37-.86c-.25-.2-.61-.3-1.08-.3h-1.27v2.33h1.27c.47,0,.83-.1,1.08-.3Z"/>
          <path class="cls-5" d="m89.3,31.07v1c-.09-.02-.17-.02-.24-.02-.41,0-.73.12-.95.36-.23.24-.34.58-.34,1.03v2.17h-1.05v-4.47h1v.65c.3-.47.83-.7,1.59-.7Z"/>
          <path class="cls-5" d="m90.93,35.36c-.36-.2-.65-.47-.85-.82s-.31-.74-.31-1.18.1-.83.31-1.18.49-.62.85-.81.77-.29,1.22-.29.87.1,1.23.29c.36.2.65.47.85.81s.31.74.31,1.18-.1.84-.31,1.18-.49.62-.85.82c-.36.2-.77.29-1.23.29s-.86-.1-1.22-.29Zm2.18-.99c.25-.26.38-.59.38-1.01s-.13-.76-.38-1.01c-.25-.26-.57-.38-.95-.38s-.7.13-.95.38c-.25.26-.37.59-.37,1.01s.12.76.37,1.01c.25.26.56.38.95.38s.7-.13.95-.38Z"/>
          <path class="cls-5" d="m95.86,35.51c-.35-.09-.62-.21-.83-.36l.4-.79c.2.13.44.24.72.32s.56.12.83.12c.62,0,.94-.16.94-.49,0-.16-.08-.26-.24-.33-.16-.06-.41-.12-.77-.18-.37-.06-.67-.12-.9-.19s-.43-.2-.6-.38c-.17-.18-.26-.43-.26-.76,0-.42.18-.76.53-1.02.35-.25.83-.38,1.44-.38.31,0,.61.03.92.1.31.07.56.16.75.28l-.4.79c-.38-.22-.81-.33-1.28-.33-.31,0-.54.05-.7.14-.16.09-.24.21-.24.36,0,.17.08.29.26.36.17.07.43.13.79.2.36.06.65.12.88.19.23.07.43.2.59.37s.25.42.25.74c0,.42-.18.75-.54,1-.36.25-.86.38-1.48.38-.36,0-.72-.05-1.06-.14Z"/>
          <path class="cls-5" d="m103.5,31.36c.34.19.61.46.81.8s.29.74.29,1.2-.1.85-.29,1.2-.46.62-.81.81c-.34.19-.73.28-1.17.28-.6,0-1.08-.2-1.43-.6v2.17h-1.05v-6.09h1v.59c.17-.21.39-.37.64-.48.25-.11.53-.16.84-.16.44,0,.82.09,1.17.28Zm-.33,3.01c.25-.26.37-.59.37-1.01s-.12-.76-.37-1.01c-.25-.26-.56-.38-.95-.38-.25,0-.48.06-.68.17s-.36.28-.48.49-.18.46-.18.74.06.52.18.74.28.38.48.49c.2.12.43.17.68.17.39,0,.7-.13.95-.38Z"/>
          <path class="cls-5" d="m109.78,33.69h-3.51c.06.33.22.59.48.78s.58.29.97.29c.49,0,.9-.16,1.21-.49l.56.64c-.2.24-.46.42-.76.54-.31.12-.65.18-1.04.18-.49,0-.92-.1-1.3-.29-.37-.2-.66-.47-.87-.82s-.31-.74-.31-1.18.1-.83.3-1.18c.2-.35.47-.62.82-.82s.75-.29,1.19-.29.82.1,1.17.29.61.46.8.81.29.75.29,1.21c0,.07,0,.18-.02.31Zm-3.09-1.49c-.23.2-.37.46-.42.79h2.54c-.04-.32-.18-.59-.41-.79-.23-.2-.51-.3-.85-.3s-.62.1-.85.3Z"/>
          <path class="cls-5" d="m113.39,31.07v1c-.09-.02-.17-.02-.24-.02-.41,0-.73.12-.95.36-.23.24-.34.58-.34,1.03v2.17h-1.05v-4.47h1v.65c.3-.47.83-.7,1.59-.7Z"/>
        </g>
      </g>
      <g>
        <g>
          <path class="cls-3" d="m207.61,24.93c1.19.02,1.63-.43,1.63-1.73v-7.74h2.85v7.74c0,2.53-1.59,4.1-4.1,4.23l-.38-2.5Z"/>
          <path class="cls-3" d="m224.43,22.45c0,.77-.11,1.27-.32,1.27h-1.52c-.22,2.42-2.02,3.83-4.69,3.72l-.37-2.53c1.43.14,2.07-.13,2.19-1.19h-1.44c-2.56,0-4.68-1.76-4.68-4.2s2.11-4.36,4.68-4.36c1.41,0,3.14.59,4.21,1.52l.11.05v4.49h1.51c.21,0,.32.48.32,1.23Zm-6.14-1.23h1.46v-3.2c-.48-.22-.98-.35-1.46-.35-1.07,0-1.84.8-1.84,1.86s.77,1.7,1.84,1.7Z"/>
          <path class="cls-3" d="m225.82,15.47h2.84v8.25h-4.55c-.21,0-.32-.5-.32-1.27s.11-1.23.32-1.23h1.71v-5.75Zm.02-2.56c0-.83.59-1.43,1.41-1.43s1.41.59,1.41,1.43-.59,1.43-1.41,1.43-1.41-.59-1.41-1.43Z"/>
          <path class="cls-3" d="m245.83,22.45c0,.77-.11,1.27-.32,1.27h-.85c-1.27,0-2.21-.38-2.82-1.12-1.01.43-1.97.66-2.85.66-2.52,0-4.53-1.89-4.53-4.31s2.02-4.28,4.57-4.28c.64,0,1.33.11,2,.32v-.38h2.85v5.29c0,.93.32,1.33,1.19,1.33h.45c.21,0,.32.48.32,1.23Zm-9.32-10.21c0-.69.5-1.19,1.17-1.19s1.17.5,1.17,1.19-.48,1.19-1.17,1.19-1.17-.5-1.17-1.19Zm4.52,7.93v-2.44c-.51-.35-1.2-.58-1.81-.58-1.06,0-1.91.79-1.91,1.78s.83,1.81,1.91,1.81c.54,0,1.17-.18,1.81-.58Zm-1.76-7.93c0-.69.5-1.19,1.17-1.19s1.17.5,1.17,1.19-.48,1.19-1.17,1.19-1.17-.5-1.17-1.19Z"/>
          <path class="cls-3" d="m254.94,21.22v2.5h-9.44c-.21,0-.32-.5-.32-1.27s.11-1.23.32-1.23h1.46c-.22-.51-.35-1.07-.35-1.68,0-2.5,2.08-4.37,4.69-4.37,1.14,0,2.32.37,3.46.91l-1.33,2.2c-.95-.42-1.59-.61-2.1-.61-1.11,0-1.88.77-1.88,1.86,0,.87.51,1.52,1.3,1.7h4.18Z"/>
          <path class="cls-3" d="m261.52,22.45c0,.77-.11,1.27-.32,1.27h-4.61v-12.06h2.85v9.56h1.76c.21,0,.32.48.32,1.23Z"/>
          <path class="cls-3" d="m268.5,22.45c0,.77-.11,1.27-.32,1.27h-.83c-1.03,0-1.81-.29-2.39-.82-.59.53-1.44.82-2.53.82h-1.23c-.21,0-.32-.5-.32-1.27s.11-1.23.32-1.23h.83c.88,0,1.19-.4,1.19-1.33v-4.42h2.85v4.44c0,.35-.03.69-.08.99.21.21.51.32.91.32h1.28c.21,0,.32.48.32,1.23Zm-5.25-9.55c0-.83.59-1.43,1.41-1.43s1.41.59,1.41,1.43-.59,1.43-1.41,1.43-1.41-.59-1.41-1.43Z"/>
          <path class="cls-3" d="m287.62,23.33h-.34v.38h-12.42c-1.25,0-2.15-.27-2.74-.8-.64.53-1.57.8-2.8.8h-1.14c-.21,0-.32-.5-.32-1.27s.11-1.23.32-1.23h.8c1.12,0,1.39-.34,1.39-1.33v-3.62h2.85v3.64c0,.37-.03.7-.08,1.01.26.22.66.3,1.28.3.66-2.85,2.8-6.38,7.45-6.38,3.94,0,5.74,2.55,5.74,5.48v3.01Zm-10.3-2.11h7.47v-.9c0-1.95-.98-2.98-2.77-2.98-2.29,0-4.07,1.63-4.69,3.88Z"/>
        </g>
        <g>
          <path class="cls-5" d="m208.5,37.25c.54,0,.74-.2.74-.79v-3.52h1.3v3.52c0,1.15-.72,1.86-1.86,1.92l-.17-1.14Z"/>
          <path class="cls-5" d="m213.71,36.12c0,.35-.05.58-.15.58h-2.1v-5.48h1.3v4.34h.8c.09,0,.15.22.15.56Z"/>
          <path class="cls-5" d="m219.73,35.51l-.04,1.18h-6.13c-.09,0-.15-.23-.15-.58s.05-.56.15-.56h.95c-.09-.33-.13-.67-.13-.97,0-.6.19-1.09.51-1.42-.2-.04-.41-.09-.63-.15l.31-1.11c1.97.5,2.71.68,3.48,1.03,1.17.54,1.75,1.19,1.69,2.57Zm-4.14.04h.85v-1.18c0-.38-.16-.71-.47-.71s-.53.33-.53.9c0,.31.06.66.15.98Zm1.91-1.58l-.04-.02c.03.13.04.28.04.42v1.18h.93v-.15c.03-.72-.17-1.08-.93-1.43Z"/>
          <path class="cls-5" d="m224.74,36.18c-.8.33-1.76.52-2.81.52-.55,0-1.05-.05-1.51-.14v-1.16c.5.12.95.17,1.5.17.5,0,.95-.04,1.38-.14-.31-1.03-1.05-1.81-2.16-2.03l.25-1.11c1.94.39,3.2,1.87,3.36,3.9Z"/>
          <path class="cls-5" d="m224.78,37.25c.54,0,.74-.2.74-.79v-3.52h1.3v3.52c0,1.15-.72,1.86-1.86,1.92l-.17-1.14Zm.75-5.62c0-.38.27-.65.64-.65s.64.27.64.65-.27.65-.64.65-.64-.27-.64-.65Z"/>
          <path class="cls-5" d="m227.74,31.21h1.3v5.48h-1.3v-5.48Z"/>
          <path class="cls-5" d="m233.01,36.07c0,.36-.26.62-.62.62-.33,0-.62-.22-.62-.62,0-.19.08-.35.17-.49l.58-.97h.62l-.38.97c.17.12.25.29.25.49Z"/>
          <path class="cls-5" d="m239.79,36.12c0,.35-.05.58-.15.58h-.14c-.34,0-.62-.07-.85-.2-.36,1-1.21,1.71-2.45,1.71-1.67,0-2.63-1.3-2.63-2.86,0-.2.02-.42.05-.63l1.28.17c-.02.17-.04.33-.04.47,0,1.05.53,1.72,1.34,1.72s1.35-.66,1.35-1.73v-4.13h1.3v4.16c.09.12.25.19.45.19h.34c.09,0,.15.22.15.56Z"/>
          <path class="cls-5" d="m248.47,36.52h-.15v.17h-5.64c-.57,0-.98-.12-1.24-.36-.29.24-.71.36-1.27.36h-.52c-.09,0-.15-.23-.15-.58s.05-.56.15-.56h.36c.51,0,.63-.15.63-.6v-1.65h1.3v1.65c0,.17-.01.32-.04.46.12.1.3.14.58.14.3-1.29,1.27-2.9,3.38-2.9,1.79,0,2.61,1.16,2.61,2.49v1.37Zm-4.68-.96h3.39v-.41c0-.89-.44-1.35-1.26-1.35-1.04,0-1.85.74-2.13,1.76Z"/>
          <path class="cls-5" d="m249.35,31.21h1.3v5.48h-1.3v-5.48Z"/>
          <path class="cls-5" d="m256.39,36.12c0,.35-.05.58-.15.58h-.69c-.1,1.1-.92,1.74-2.13,1.69l-.17-1.15c.65.07.94-.06,1-.54h-.66c-1.16,0-2.12-.8-2.12-1.91s.96-1.98,2.12-1.98c.64,0,1.43.27,1.92.69l.05.02v2.04h.68c.09,0,.15.22.15.56Zm-2.79-.56h.66v-1.46c-.22-.1-.44-.16-.66-.16-.49,0-.84.36-.84.84s.35.77.84.77Z"/>
          <path class="cls-5" d="m257.02,32.95h1.29v3.75h-2.07c-.09,0-.15-.23-.15-.58s.05-.56.15-.56h.78v-2.61Zm-.5-1.05c0-.31.23-.54.53-.54s.53.23.53.54-.22.54-.53.54-.53-.23-.53-.54Zm2.31,0c0,.31-.22.54-.53.54s-.53-.23-.53-.54.23-.54.53-.54.53.23.53.54Z"/>
          <path class="cls-5" d="m262.22,36.07c0,.36-.26.62-.62.62-.33,0-.62-.22-.62-.62,0-.19.08-.35.17-.49l.58-.97h.62l-.38.97c.17.12.25.29.25.49Z"/>
          <path class="cls-5" d="m270.51,36.12c0,.35-.05.58-.15.58h-7.58v-1.14h.58v-4.34h1.3v2.98c.4-.84,1.11-1.54,2.31-1.54,1.46,0,2.48,1.03,2.48,2.49v.41h.9c.09,0,.15.22.15.56Zm-2.34-.56v-.41c0-.89-.44-1.35-1.26-1.35-1.04,0-1.85.74-2.13,1.76h3.39Z"/>
          <path class="cls-5" d="m273.68,36.12c0,.35-.05.58-.15.58h-.38c-.47,0-.82-.13-1.08-.37-.27.24-.65.37-1.15.37h-.56c-.09,0-.15-.23-.15-.58s.05-.56.15-.56h.38c.4,0,.54-.18.54-.6v-2.01h1.3v2.02c0,.16-.01.31-.04.45.09.09.23.15.42.15h.58c.09,0,.15.22.15.56Zm-1.84,1.68c0,.31-.22.54-.53.54s-.53-.23-.53-.54.23-.54.53-.54.53.23.53.54Zm1.25,0c0,.31-.22.54-.53.54s-.53-.23-.53-.54.23-.54.53-.54.53.23.53.54Z"/>
          <path class="cls-5" d="m282,36.12c0,.35-.05.58-.15.58h-.55c-.46,0-.82-.13-1.08-.36-.29.24-.71.36-1.27.36s-.97-.12-1.24-.36c-.29.24-.71.36-1.27.36s-.97-.12-1.24-.36c-.29.24-.71.36-1.28.36h-.39c-.09,0-.15-.23-.15-.58s.05-.56.15-.56h.24c.5,0,.63-.15.63-.6v-1.28h1.3v1.29c0,.17-.01.32-.04.46.12.1.3.14.59.14.55,0,.68-.13.68-.6v-1.65h1.29v1.65c0,.17-.01.33-.04.47.12.09.3.12.58.12.55,0,.68-.13.68-.6v-2.01h1.3v2.02c0,.17-.01.32-.04.47.09.09.23.13.4.13h.75c.09,0,.15.22.15.56Z"/>
          <path class="cls-5" d="m285.17,36.12c0,.35-.05.58-.15.58h-.38c-.47,0-.82-.13-1.08-.37-.27.24-.65.37-1.15.37h-.56c-.09,0-.15-.23-.15-.58s.05-.56.15-.56h.38c.4,0,.54-.18.54-.6v-2.01h1.3v2.02c0,.16-.01.31-.04.45.09.09.23.15.42.15h.58c.09,0,.15.22.15.56Zm-1.14,1.81c0,.38-.27.65-.64.65s-.64-.27-.64-.65.27-.65.64-.65.64.27.64.65Z"/>
          <path class="cls-5" d="m285.8,32.95h1.29v3.75h-2.07c-.09,0-.15-.23-.15-.58s.05-.56.15-.56h.78v-2.61Zm-.5-1.05c0-.31.23-.54.53-.54s.53.23.53.54-.22.54-.53.54-.53-.23-.53-.54Zm2.31,0c0,.31-.22.54-.53.54s-.53-.23-.53-.54.23-.54.53-.54.53.23.53.54Z"/>
        </g>
      </g>
    </g>
  </g>
</svg>